<?xml version="1.0" standalone="no"?>
<!DOCTYPE svg PUBLIC "-//W3C//DTD SVG 20010904//EN"
 "http://www.w3.org/TR/2001/REC-SVG-20010904/DTD/svg10.dtd">
<svg version="1.0" xmlns="http://www.w3.org/2000/svg"
 width="500.000000pt" height="500.000000pt" viewBox="0 0 500.000000 500.000000"
 preserveAspectRatio="xMidYMid meet">
<metadata>
Created by potrace 1.14, written by Peter Selinger 2001-2017
</metadata>
<g transform="translate(0.000000,500.000000) scale(0.100000,-0.100000)"
fill="#000000" stroke="none">
<path d="M132 4910 c-42 -26 -62 -54 -69 -93 -14 -88 -23 -77 422 -522 228
-228 422 -429 431 -446 19 -37 14 -107 -10 -141 -37 -52 -124 -75 -179 -47
-12 6 -119 107 -237 225 -118 117 -228 218 -244 224 -16 6 -48 8 -72 4 -51 -7
-103 -56 -113 -106 -15 -71 2 -99 160 -258 81 -82 156 -164 165 -182 21 -41
22 -124 1 -164 -8 -16 -66 -80 -127 -143 -63 -64 -120 -132 -131 -155 -36 -80
-42 -52 227 -1051 37 -137 78 -291 109 -410 15 -55 44 -163 64 -240 21 -77 55
-203 76 -280 43 -163 65 -208 121 -250 41 -32 69 -40 464 -145 80 -21 180 -48
223 -59 653 -176 900 -241 903 -238 2 2 -241 248 -539 548 -299 299 -561 567
-584 594 -109 134 -237 385 -268 525 -40 180 -49 254 -47 401 6 619 437 1180
1037 1349 167 47 398 67 543 47 23 -4 42 -4 42 -2 0 8 -724 729 -750 748 -37
26 -69 21 -128 -20 -37 -25 -67 -37 -101 -41 -81 -7 -116 11 -231 123 -117
114 -153 133 -218 116 -80 -22 -124 -113 -93 -194 5 -14 79 -95 164 -180 84
-86 161 -167 171 -181 20 -32 23 -104 6 -137 -31 -57 -84 -84 -150 -74 -43 6
-60 22 -475 435 -371 370 -435 429 -465 434 -50 7 -67 5 -98 -14z"/>
<path d="M2230 4467 c3 -4 262 -264 575 -579 619 -622 652 -660 750 -863 53
-109 103 -258 125 -365 33 -172 27 -423 -16 -595 -125 -498 -489 -887 -970
-1034 -95 -29 -160 -43 -269 -57 -67 -9 -261 -9 -307 0 -21 4 -38 4 -38 1 0
-3 163 -168 362 -367 341 -339 365 -361 403 -366 34 -3 47 1 72 22 68 57 152
71 223 35 19 -10 80 -63 135 -119 112 -113 141 -133 198 -132 74 1 137 71 137
151 0 43 -32 82 -212 263 -183 183 -198 208 -172 284 14 42 64 94 92 95 9 0
26 2 37 4 51 10 103 -36 505 -439 l405 -406 111 0 c82 0 115 4 123 14 20 24
25 100 8 132 -8 16 -204 218 -435 449 -230 231 -427 435 -437 454 -20 40 -16
98 10 137 38 58 132 83 185 48 14 -9 126 -117 250 -240 242 -239 262 -253 335
-233 46 13 93 62 101 105 13 72 -6 101 -175 271 -87 88 -166 174 -175 192 -20
37 -23 113 -7 155 6 16 67 85 134 155 129 132 148 164 149 250 0 21 -30 150
-67 287 -36 137 -98 366 -136 509 -38 143 -83 310 -99 370 -17 61 -48 178 -70
260 -22 83 -45 166 -50 185 -5 19 -35 126 -65 238 -30 113 -64 217 -76 233
-45 63 -101 87 -364 154 -16 5 -34 9 -40 11 -16 5 -279 75 -295 79 -8 2 -91
25 -185 50 -243 66 -568 153 -650 174 -39 10 -81 22 -95 26 -14 4 -23 5 -20 2z"/>
<path d="M2586 3548 c-18 -106 -36 -231 -34 -233 2 -1 29 -11 60 -22 125 -45
303 -172 367 -262 l20 -27 -78 -80 -77 -80 0 -176 1 -176 97 -97 97 -98 58 -1
c56 -1 58 -2 55 -26 -5 -35 -43 -143 -54 -155 -6 -7 -9 -7 -8 0 2 6 2 27 1 48
l-1 37 -123 0 -123 0 1 -106 1 -106 53 -51 54 -51 -54 -50 c-143 -132 -326
-213 -524 -231 -61 -6 -71 -10 -72 -27 -1 -11 -7 -52 -12 -91 -6 -40 -13 -92
-16 -116 l-6 -44 98 6 c319 18 605 161 815 408 l48 56 72 -2 c40 0 81 3 92 8
10 5 59 49 108 98 l89 90 2 170 c3 193 7 179 -85 272 -46 46 -58 65 -59 90 0
18 -2 51 -5 75 l-6 42 76 0 c42 0 76 3 77 8 0 4 1 50 2 102 l2 94 -101 101
c-100 99 -102 100 -147 99 -45 -2 -47 -1 -77 47 -89 138 -251 295 -379 367
-70 40 -92 51 -161 79 -41 17 -89 34 -107 38 -30 6 -32 4 -37 -27z m568 -874
c10 -39 16 -86 14 -105 l-3 -34 -36 37 c-34 33 -37 42 -38 94 0 41 5 64 16 76
22 24 27 16 47 -68z m-280 -509 c-4 -8 -8 -15 -10 -15 -2 0 -4 7 -4 15 0 8 4
15 10 15 5 0 7 -7 4 -15z"/>
<path d="M2105 3529 c-84 -13 -107 -19 -197 -49 -204 -68 -393 -199 -521 -359
l-60 -76 -116 -1 c-64 -1 -124 -2 -133 -3 -17 -1 -18 -39 -15 -623 l2 -622
117 -1 117 0 43 -61 c134 -192 337 -344 561 -420 39 -13 74 -24 78 -24 6 0 17
66 35 205 3 28 8 53 11 58 2 4 -1 7 -7 7 -49 0 -249 112 -332 186 -54 47 -53
50 25 49 66 0 72 2 71 20 -1 11 -31 126 -68 256 -36 130 -66 242 -66 250 0 8
37 49 82 92 l82 78 0 178 1 177 -83 83 -83 83 20 20 c141 130 338 219 523 234
46 4 78 11 79 18 0 6 2 18 4 26 4 22 15 91 20 136 3 22 8 51 11 67 l6 27 -79
-1 c-43 -1 -100 -5 -128 -10z m-569 -768 c26 -26 29 -36 29 -91 1 -58 -2 -65
-32 -93 -25 -24 -42 -31 -74 -32 -22 -1 -42 2 -44 6 -12 18 65 239 83 239 5 0
22 -13 38 -29z m-442 -937 c3 -8 2 -12 -4 -9 -6 3 -10 10 -10 16 0 14 7 11 14
-7z"/>
<path d="M1955 3040 c-1 -3 -2 -284 -1 -625 l1 -620 275 0 274 0 101 100 101
100 -2 420 c-1 231 -2 423 -3 427 0 4 -45 51 -98 105 l-98 98 -273 0 c-151 0
-275 -2 -277 -5z m468 -278 l31 -31 1 -298 c1 -164 -3 -309 -7 -322 -17 -49
-53 -65 -150 -65 -70 -1 -89 2 -92 14 -4 14 -1 734 3 735 0 1 42 0 92 -1 87
-1 92 -3 122 -32z m264 -114 c-3 -8 -6 -5 -6 6 -1 11 2 17 5 13 3 -3 4 -12 1
-19z"/>
</g>
</svg>
